<?xml version="1.0" encoding="UTF-8"?>
<svg width="512" height="512" viewBox="0 0 512 512" fill="none" xmlns="http://www.w3.org/2000/svg">
  <rect width="512" height="512" rx="128" fill="#3B82F6"/>
  <circle cx="256" cy="256" r="160" fill="#FCD34D"/>
  <path d="M256 96C167.634 96 96 167.634 96 256C96 344.366 167.634 416 256 416C344.366 416 416 344.366 416 256C416 167.634 344.366 96 256 96ZM256 384C185.307 384 128 326.693 128 256C128 185.307 185.307 128 256 128C326.693 128 384 185.307 384 256C384 326.693 326.693 384 256 384Z" fill="#FBBF24"/>
</svg>